M48
METRIC,LZ
T01C.4
;LEADER: 12 
;HEADER: 
;CODE  : ASCII 
;FILE  : DRILL-1-2.drl for board C:/USERS/JEAN/DESKTOP/PROIECT APD/allegro/#Taaaacu26112.tmp ... layers TOP and BOTTOM
;T01 Holesize 1. = 0.400000 Tolerance = +0.000000/-0.000000 PLATED MM Quantity = 29
%
G90
T01
X08255Y13335
X09525Y1524
X06985Y15349
X08255Y1778
X06985Y1905
X06985Y2032
X082Y2101
X06985Y254
X12065Y2921
X1143Y2286
X1778Y2286
X2413Y22225
X2159Y2159
X24765Y17145
X24765Y13335
X26035Y1397
X28575Y1397
X26084Y15289
X2794Y1778
X26035Y2032
X28575Y216521
X26035Y2413
X29845Y254
X311132Y2413
X3048Y2159
X3429Y1524
X32385Y06985
X32385Y038079
X35627Y22225
M30
