G04 ================== begin FILE IDENTIFICATION RECORD ==================*
G04 Layout Name:  PROIECT_APD_SCHEMATIC_ANALOG.brd*
G04 Film Name:    NCLEGEND-1-2*
G04 File Format:  Gerber RS274X*
G04 File Origin:  Cadence Allegro 17.2-S025*
G04 Origin Date:  Sat Jan 24 00:08:06 2026*
G04 *
G04 Layer:  MANUFACTURING/XSECTION_CHART*
G04 Layer:  MANUFACTURING/NCLEGEND-1-2*
G04 Layer:  MANUFACTURING/NCDRILL_LEGEND*
G04 Layer:  MANUFACTURING/NCDRILL_FIGURE*
G04 Layer:  BOARD GEOMETRY/DIMENSION*
G04 Layer:  BOARD GEOMETRY/DESIGN_OUTLINE*
G04 Layer:  BOARD GEOMETRY/CUTOUT*
G04 *
G04 Offset:    (0.0000 0.0000)*
G04 Mirror:    No*
G04 Mode:      Positive*
G04 Rotation:  0*
G04 FullContactRelief:  No*
G04 UndefLineWidth:     0.1200*
G04 ================== end FILE IDENTIFICATION RECORD ====================*
%FSLAX25Y25*MOMM*%
%IR0*IPPOS*OFA0.00000B0.00000*MIA0B0*SFA1.00000B1.00000*%
%AMMACRO10*
1,1,.12,.635,0.0*
20,1,.12,.635,0.0,.625353,-.110267,0.0*
1,1,.12,.625353,-.110267*
20,1,.12,.625353,-.110267,.596705,-.217183,0.0*
1,1,.12,.596705,-.217183*
20,1,.12,.596705,-.217183,.549926,-.3175,0.0*
1,1,.12,.549926,-.3175*
20,1,.12,.549926,-.3175,.486438,-.40817,0.0*
1,1,.12,.486438,-.40817*
20,1,.12,.486438,-.40817,.40817,-.486438,0.0*
1,1,.12,.40817,-.486438*
20,1,.12,.40817,-.486438,.3175,-.549926,0.0*
1,1,.12,.3175,-.549926*
20,1,.12,.3175,-.549926,.217183,-.596705,0.0*
1,1,.12,.217183,-.596705*
20,1,.12,.217183,-.596705,.110267,-.625353,0.0*
1,1,.12,.110267,-.625353*
20,1,.12,.110267,-.625353,0.0,-.635,0.0*
1,1,.12,0.0,-.635*
20,1,.12,0.0,-.635,-.110267,-.625353,0.0*
1,1,.12,-.110267,-.625353*
20,1,.12,-.110267,-.625353,-.217183,-.596705,0.0*
1,1,.12,-.217183,-.596705*
20,1,.12,-.217183,-.596705,-.3175,-.549926,0.0*
1,1,.12,-.3175,-.549926*
20,1,.12,-.3175,-.549926,-.40817,-.486438,0.0*
1,1,.12,-.40817,-.486438*
20,1,.12,-.40817,-.486438,-.486438,-.40817,0.0*
1,1,.12,-.486438,-.40817*
20,1,.12,-.486438,-.40817,-.549926,-.3175,0.0*
1,1,.12,-.549926,-.3175*
20,1,.12,-.549926,-.3175,-.596705,-.217183,0.0*
1,1,.12,-.596705,-.217183*
20,1,.12,-.596705,-.217183,-.625353,-.110267,0.0*
1,1,.12,-.625353,-.110267*
20,1,.12,-.625353,-.110267,-.635,0.0,0.0*
1,1,.12,-.635,0.0*
20,1,.12,-.635,0.0,-.625353,.110267,0.0*
1,1,.12,-.625353,.110267*
20,1,.12,-.625353,.110267,-.596705,.217183,0.0*
1,1,.12,-.596705,.217183*
20,1,.12,-.596705,.217183,-.549926,.3175,0.0*
1,1,.12,-.549926,.3175*
20,1,.12,-.549926,.3175,-.486438,.40817,0.0*
1,1,.12,-.486438,.40817*
20,1,.12,-.486438,.40817,-.40817,.486438,0.0*
1,1,.12,-.40817,.486438*
20,1,.12,-.40817,.486438,-.3175,.549926,0.0*
1,1,.12,-.3175,.549926*
20,1,.12,-.3175,.549926,-.217183,.596705,0.0*
1,1,.12,-.217183,.596705*
20,1,.12,-.217183,.596705,-.110267,.625353,0.0*
1,1,.12,-.110267,.625353*
20,1,.12,-.110267,.625353,0.0,.635,0.0*
1,1,.12,0.0,.635*
20,1,.12,0.0,.635,.110267,.625353,0.0*
1,1,.12,.110267,.625353*
20,1,.12,.110267,.625353,.217183,.596705,0.0*
1,1,.12,.217183,.596705*
20,1,.12,.217183,.596705,.3175,.549926,0.0*
1,1,.12,.3175,.549926*
20,1,.12,.3175,.549926,.40817,.486438,0.0*
1,1,.12,.40817,.486438*
20,1,.12,.40817,.486438,.486438,.40817,0.0*
1,1,.12,.486438,.40817*
20,1,.12,.486438,.40817,.549926,.3175,0.0*
1,1,.12,.549926,.3175*
20,1,.12,.549926,.3175,.596705,.217183,0.0*
1,1,.12,.596705,.217183*
20,1,.12,.596705,.217183,.625353,.110267,0.0*
1,1,.12,.625353,.110267*
20,1,.12,.625353,.110267,.635,0.0,0.0*
1,1,.12,.635,0.0*
1,1,.12,.3175,0.0*
20,1,.12,.3175,0.0,-.3175,0.0,0.0*
1,1,.12,-.3175,0.0*
1,1,.12,0.0,.3175*
20,1,.12,0.0,.3175,0.0,-.3175,0.0*
1,1,.12,0.0,-.3175*
%
%ADD10MACRO10*%
%ADD11C,.12*%
G75*
%LPD*%
G75*
G36*
G01X-2730500Y5769330D02*
Y5711740D01*
X-2667000D01*
Y706930D01*
X-2730500D01*
Y649340D01*
X-2349500D01*
Y706930D01*
X-2413000D01*
Y5711740D01*
X-2349500D01*
Y5769330D01*
X-2730500D01*
G37*
G36*
G01X-3238500Y649350D02*
Y706940D01*
X-1714500D01*
Y649350D01*
X-3238500D01*
G37*
G36*
G01Y5711740D02*
Y5769330D01*
X-1714500D01*
Y5711740D01*
X-3238500D01*
G37*
G54D10*
X-3366770Y-2428000D03*
X698500Y1534900D03*
X952500Y1524000D03*
X825500Y1778000D03*
Y1333500D03*
X698500Y1905000D03*
Y2032000D03*
X820000Y2101000D03*
X698500Y2540000D03*
X1778000Y2286000D03*
X1143000D03*
X1206500Y2921000D03*
X2476500Y1714500D03*
Y1333500D03*
X2413000Y2222500D03*
X2159000Y2159000D03*
X3238500Y380790D03*
Y698500D03*
X2603500Y1397000D03*
X2857500D03*
X2608400Y1528900D03*
X2794000Y1778000D03*
X2603500Y2032000D03*
X2984500Y2540000D03*
X2857500Y2165210D03*
X3111320Y2413000D03*
X2603500D03*
X3048000Y2159000D03*
X3429000Y1524000D03*
X3562700Y2222500D03*
G54D11*
G01X-4228980Y-1951750D02*
Y-1634250D01*
X-4079360D01*
G01X-4134490Y-1787700D02*
X-4228980D01*
G01X-3886450Y-1634250D02*
X-3791970D01*
G01X-3839210D02*
Y-1951750D01*
G01X-3886450D02*
X-3791970D01*
G01X-3500630Y-1793000D02*
X-3421880D01*
Y-1888250D01*
X-3445510Y-1920010D01*
X-3473070Y-1941170D01*
X-3512440Y-1951750D01*
X-3551810Y-1941170D01*
X-3579370Y-1920010D01*
X-3602990Y-1888250D01*
X-3618740Y-1851210D01*
X-3626620Y-1808880D01*
Y-1771830D01*
X-3618740Y-1740090D01*
X-3602990Y-1703040D01*
X-3579370Y-1671290D01*
X-3555750Y-1650130D01*
X-3524250Y-1634250D01*
X-3496690D01*
X-3465200Y-1644830D01*
X-3441570Y-1666000D01*
G01X-3295900Y-1634250D02*
Y-1861790D01*
X-3280160Y-1909430D01*
X-3248660Y-1941170D01*
X-3209290Y-1951750D01*
X-3169920Y-1941170D01*
X-3138420Y-1909430D01*
X-3122680Y-1861790D01*
Y-1634250D01*
G01X-2973070Y-1951750D02*
Y-1634250D01*
X-2874650D01*
X-2843150Y-1650130D01*
X-2823460Y-1671290D01*
X-2815590Y-1713630D01*
X-2823460Y-1755960D01*
X-2847090Y-1782410D01*
X-2874650Y-1798300D01*
X-2973070D01*
G01X-2874650D02*
X-2815590Y-1951750D01*
G01X-2500630D02*
X-2658110D01*
Y-1634250D01*
X-2500630D01*
G01X-2563620Y-1787700D02*
X-2658110D01*
G01X-3189900Y389460D02*
Y452960D01*
X-3176350D01*
X-3170940Y449780D01*
X-3166870Y445550D01*
X-3163480Y439200D01*
X-3160780Y431790D01*
X-3160100Y421210D01*
X-3160780Y410630D01*
X-3163480Y403220D01*
X-3166870Y396870D01*
X-3170940Y392630D01*
X-3176350Y389460D01*
X-3189900D01*
G01X-3105570D02*
X-3132670D01*
Y452960D01*
X-3105570D01*
G01X-3116410Y422270D02*
X-3132670D01*
G01X-3077460Y397920D02*
X-3072050Y392630D01*
X-3065950Y389460D01*
X-3060530D01*
X-3055110Y392630D01*
X-3051050Y397920D01*
X-3049020Y405340D01*
X-3050370Y412740D01*
X-3053760Y419090D01*
X-3059850Y423330D01*
X-3067980Y425440D01*
X-3072720Y429680D01*
X-3074760Y437080D01*
X-3073400Y444490D01*
X-3070010Y449780D01*
X-3065270Y452960D01*
X-3060530D01*
X-3055790Y450840D01*
X-3051720Y445550D01*
G01X-3015490Y452960D02*
X-2999230D01*
G01X-3007360D02*
Y389460D01*
G01X-3015490D02*
X-2999230D01*
G01X-2947420Y421210D02*
X-2933870D01*
Y402160D01*
X-2937930Y395810D01*
X-2942670Y391580D01*
X-2949450Y389460D01*
X-2956220Y391580D01*
X-2960960Y395810D01*
X-2965030Y402160D01*
X-2967740Y409570D01*
X-2969090Y418030D01*
Y425440D01*
X-2967740Y431790D01*
X-2965030Y439200D01*
X-2960960Y445550D01*
X-2956900Y449780D01*
X-2951480Y452960D01*
X-2946740D01*
X-2941320Y450840D01*
X-2937260Y446610D01*
G01X-2911180Y389460D02*
Y452960D01*
X-2880020Y389460D01*
Y452960D01*
G01X-2768940Y447670D02*
X-2773000Y450840D01*
X-2777740Y452960D01*
X-2783160D01*
X-2789260Y449780D01*
X-2794000Y444490D01*
X-2797390Y438140D01*
X-2800100Y427560D01*
X-2800770Y418030D01*
X-2799420Y408510D01*
X-2797390Y402160D01*
X-2793320Y395810D01*
X-2788580Y391580D01*
X-2783840Y389460D01*
X-2779100D01*
X-2774360Y391580D01*
X-2770290Y394750D01*
X-2766910Y398980D01*
G01X-2741510Y389460D02*
Y452960D01*
X-2724570D01*
X-2719150Y449780D01*
X-2715770Y445550D01*
X-2714410Y437080D01*
X-2715770Y428620D01*
X-2719830Y423330D01*
X-2724570Y420150D01*
X-2741510D01*
G01X-2724570D02*
X-2714410Y389460D01*
G01X-2672080D02*
X-2677500Y390520D01*
X-2682240Y394750D01*
X-2686300Y401100D01*
X-2689010Y408510D01*
X-2690370Y416980D01*
Y425440D01*
X-2689010Y433910D01*
X-2686300Y441320D01*
X-2682240Y447670D01*
X-2677500Y451900D01*
X-2672080Y452960D01*
X-2666660Y451900D01*
X-2661920Y447670D01*
X-2657860Y441320D01*
X-2655150Y433910D01*
X-2653790Y425440D01*
Y416980D01*
X-2655150Y408510D01*
X-2657860Y401100D01*
X-2661920Y394750D01*
X-2666660Y390520D01*
X-2672080Y389460D01*
G01X-2630420Y397920D02*
X-2625010Y392630D01*
X-2618910Y389460D01*
X-2613490D01*
X-2608070Y392630D01*
X-2604010Y397920D01*
X-2601980Y405340D01*
X-2603330Y412740D01*
X-2606720Y419090D01*
X-2612810Y423330D01*
X-2620940Y425440D01*
X-2625680Y429680D01*
X-2627720Y437080D01*
X-2626360Y444490D01*
X-2622970Y449780D01*
X-2618230Y452960D01*
X-2613490D01*
X-2608750Y450840D01*
X-2604680Y445550D01*
G01X-2574540Y397920D02*
X-2569130Y392630D01*
X-2563030Y389460D01*
X-2557610D01*
X-2552190Y392630D01*
X-2548130Y397920D01*
X-2546100Y405340D01*
X-2547450Y412740D01*
X-2550840Y419090D01*
X-2556930Y423330D01*
X-2565060Y425440D01*
X-2569800Y429680D01*
X-2571840Y437080D01*
X-2570480Y444490D01*
X-2567090Y449780D01*
X-2562350Y452960D01*
X-2557610D01*
X-2552870Y450840D01*
X-2548800Y445550D01*
G01X-2462780Y397920D02*
X-2457370Y392630D01*
X-2451270Y389460D01*
X-2445850D01*
X-2440430Y392630D01*
X-2436370Y397920D01*
X-2434340Y405340D01*
X-2435690Y412740D01*
X-2439080Y419090D01*
X-2445170Y423330D01*
X-2453300Y425440D01*
X-2458040Y429680D01*
X-2460080Y437080D01*
X-2458720Y444490D01*
X-2455330Y449780D01*
X-2450590Y452960D01*
X-2445850D01*
X-2441110Y450840D01*
X-2437040Y445550D01*
G01X-2379130Y389460D02*
X-2406230D01*
Y452960D01*
X-2379130D01*
G01X-2389970Y422270D02*
X-2406230D01*
G01X-2321900Y447670D02*
X-2325960Y450840D01*
X-2330700Y452960D01*
X-2336120D01*
X-2342220Y449780D01*
X-2346960Y444490D01*
X-2350350Y438140D01*
X-2353060Y427560D01*
X-2353730Y418030D01*
X-2352380Y408510D01*
X-2350350Y402160D01*
X-2346280Y395810D01*
X-2341540Y391580D01*
X-2336800Y389460D01*
X-2332060D01*
X-2327320Y391580D01*
X-2323250Y394750D01*
X-2319870Y398980D01*
G01X-2280920Y452960D02*
Y389460D01*
G01X-2296500Y452960D02*
X-2265340D01*
G01X-2233170D02*
X-2216910D01*
G01X-2225040D02*
Y389460D01*
G01X-2233170D02*
X-2216910D01*
G01X-2169160D02*
X-2174580Y390520D01*
X-2179320Y394750D01*
X-2183380Y401100D01*
X-2186090Y408510D01*
X-2187450Y416980D01*
Y425440D01*
X-2186090Y433910D01*
X-2183380Y441320D01*
X-2179320Y447670D01*
X-2174580Y451900D01*
X-2169160Y452960D01*
X-2163740Y451900D01*
X-2159000Y447670D01*
X-2154940Y441320D01*
X-2152230Y433910D01*
X-2150870Y425440D01*
Y416980D01*
X-2152230Y408510D01*
X-2154940Y401100D01*
X-2159000Y394750D01*
X-2163740Y390520D01*
X-2169160Y389460D01*
G01X-2128860D02*
Y452960D01*
X-2097700Y389460D01*
Y452960D01*
G01X-1986620Y447670D02*
X-1990680Y450840D01*
X-1995420Y452960D01*
X-2000840D01*
X-2006940Y449780D01*
X-2011680Y444490D01*
X-2015070Y438140D01*
X-2017780Y427560D01*
X-2018450Y418030D01*
X-2017100Y408510D01*
X-2015070Y402160D01*
X-2011000Y395810D01*
X-2006260Y391580D01*
X-2001520Y389460D01*
X-1996780D01*
X-1992040Y391580D01*
X-1987970Y394750D01*
X-1984590Y398980D01*
G01X-1959860Y389460D02*
Y452960D01*
G01X-1931420D02*
Y389460D01*
G01Y421210D02*
X-1959860D01*
G01X-1906690Y389460D02*
X-1889760Y452960D01*
X-1872830Y389460D01*
G01X-1878920Y411680D02*
X-1900600D01*
G01X-1847430Y389460D02*
Y452960D01*
X-1830490D01*
X-1825070Y449780D01*
X-1821690Y445550D01*
X-1820330Y437080D01*
X-1821690Y428620D01*
X-1825750Y423330D01*
X-1830490Y420150D01*
X-1847430D01*
G01X-1830490D02*
X-1820330Y389460D01*
G01X-1778000Y452960D02*
Y389460D01*
G01X-1793580Y452960D02*
X-1762420D01*
G01X-3223260Y368290D02*
X-3182620D01*
G01X-3167380D02*
X-3126740D01*
G01X-3111500D02*
X-3070860D01*
G01X-3055620D02*
X-3014980D01*
G01X-2999740D02*
X-2959100D01*
G01X-2943860D02*
X-2903220D01*
G01X-2887980D02*
X-2847340D01*
G01X-2832100D02*
X-2791460D01*
G01X-2776220D02*
X-2735580D01*
G01X-2720340D02*
X-2679700D01*
G01X-2664460D02*
X-2623820D01*
G01X-2608580D02*
X-2567940D01*
G01X-2552700D02*
X-2512060D01*
G01X-2496820D02*
X-2456180D01*
G01X-2440940D02*
X-2400300D01*
G01X-2385060D02*
X-2344420D01*
G01X-2329180D02*
X-2288540D01*
G01X-2273300D02*
X-2232660D01*
G01X-2217420D02*
X-2176780D01*
G01X-2161540D02*
X-2120900D01*
G01X-2105660D02*
X-2065020D01*
G01X-2049780D02*
X-2009140D01*
G01X-1993900D02*
X-1953260D01*
G01X-1938020D02*
X-1897380D01*
G01X-1882140D02*
X-1841500D01*
G01X-1826260D02*
X-1785620D01*
G01X-1770380D02*
X-1729740D01*
G01X-3063240Y338660D02*
Y275160D01*
G01X-3078820Y338660D02*
X-3047660D01*
G01X-3007360Y275160D02*
X-3012780Y276220D01*
X-3017520Y280450D01*
X-3021580Y286800D01*
X-3024290Y294210D01*
X-3025650Y302680D01*
Y311140D01*
X-3024290Y319610D01*
X-3021580Y327020D01*
X-3017520Y333370D01*
X-3012780Y337600D01*
X-3007360Y338660D01*
X-3001940Y337600D01*
X-2997200Y333370D01*
X-2993140Y327020D01*
X-2990430Y319610D01*
X-2989070Y311140D01*
Y302680D01*
X-2990430Y294210D01*
X-2993140Y286800D01*
X-2997200Y280450D01*
X-3001940Y276220D01*
X-3007360Y275160D01*
G01X-2951480Y338660D02*
Y275160D01*
G01X-2967060Y338660D02*
X-2935900D01*
G01X-2912530Y275160D02*
X-2895600Y338660D01*
X-2878670Y275160D01*
G01X-2884760Y297380D02*
X-2906440D01*
G01X-2853270Y338660D02*
Y275160D01*
X-2826170D01*
G01X-2727960Y338660D02*
Y275160D01*
G01X-2743540Y338660D02*
X-2712380D01*
G01X-2686300Y275160D02*
Y338660D01*
G01X-2657860D02*
Y275160D01*
G01Y306910D02*
X-2686300D01*
G01X-2624330Y338660D02*
X-2608070D01*
G01X-2616200D02*
Y275160D01*
G01X-2624330D02*
X-2608070D01*
G01X-2545420Y333370D02*
X-2549480Y336540D01*
X-2554220Y338660D01*
X-2559640D01*
X-2565740Y335480D01*
X-2570480Y330190D01*
X-2573870Y323840D01*
X-2576580Y313260D01*
X-2577250Y303730D01*
X-2575900Y294210D01*
X-2573870Y287860D01*
X-2569800Y281510D01*
X-2565060Y277280D01*
X-2560320Y275160D01*
X-2555580D01*
X-2550840Y277280D01*
X-2546770Y280450D01*
X-2543390Y284680D01*
G01X-2519340Y275160D02*
Y338660D01*
G01X-2493600D02*
X-2519340Y299500D01*
G01X-2489540Y275160D02*
X-2507830Y317490D01*
G01X-2464140Y275160D02*
Y338660D01*
X-2432980Y275160D01*
Y338660D01*
G01X-2379130Y275160D02*
X-2406230D01*
Y338660D01*
X-2379130D01*
G01X-2389970Y307970D02*
X-2406230D01*
G01X-2351020Y283620D02*
X-2345610Y278330D01*
X-2339510Y275160D01*
X-2334090D01*
X-2328670Y278330D01*
X-2324610Y283620D01*
X-2322580Y291040D01*
X-2323930Y298440D01*
X-2327320Y304790D01*
X-2333410Y309030D01*
X-2341540Y311140D01*
X-2346280Y315380D01*
X-2348320Y322780D01*
X-2346960Y330190D01*
X-2343570Y335480D01*
X-2338830Y338660D01*
X-2334090D01*
X-2329350Y336540D01*
X-2325280Y331250D01*
G01X-2295140Y283620D02*
X-2289730Y278330D01*
X-2283630Y275160D01*
X-2278210D01*
X-2272790Y278330D01*
X-2268730Y283620D01*
X-2266700Y291040D01*
X-2268050Y298440D01*
X-2271440Y304790D01*
X-2277530Y309030D01*
X-2285660Y311140D01*
X-2290400Y315380D01*
X-2292440Y322780D01*
X-2291080Y330190D01*
X-2287690Y335480D01*
X-2282950Y338660D01*
X-2278210D01*
X-2273470Y336540D01*
X-2269400Y331250D01*
G01X-2169160Y275160D02*
Y338660D01*
X-2177290Y325960D01*
G01Y275160D02*
X-2161030D01*
G01X-2113280Y273040D02*
X-2114630Y274100D01*
Y276220D01*
X-2113280Y277280D01*
X-2111930Y276220D01*
Y274100D01*
X-2113280Y273040D01*
G01X-2070270Y301620D02*
X-2065530Y309030D01*
X-2061460Y313260D01*
X-2056050Y315380D01*
X-2051300Y313260D01*
X-2047920Y309030D01*
X-2045210Y302680D01*
X-2044530Y295270D01*
X-2045210Y288920D01*
X-2047920Y282570D01*
X-2051980Y277280D01*
X-2056720Y275160D01*
X-2062140Y277280D01*
X-2066880Y283620D01*
X-2069590Y293150D01*
X-2070270Y303730D01*
X-2068920Y317490D01*
X-2066880Y324900D01*
X-2063500Y332310D01*
X-2058750Y337600D01*
X-2054010Y338660D01*
X-2049270Y336540D01*
X-2045880Y331250D01*
G01X-1963250Y275160D02*
Y338660D01*
X-1945640Y285740D01*
X-1928030Y338660D01*
Y275160D01*
G01X-1907370D02*
Y338660D01*
X-1889760Y285740D01*
X-1872150Y338660D01*
Y275160D01*
G01X-2559690Y-1316750D02*
X-2461260Y-999250D01*
X-2362830Y-1316750D01*
G01X-2398270Y-1205630D02*
X-2524260D01*
G01X-2225040Y-999250D02*
Y-1316750D01*
X-2067560D01*
G01X-1910080Y-999250D02*
Y-1316750D01*
X-1752600D01*
G01X-1288030Y-999250D02*
Y-1226790D01*
X-1272290Y-1274430D01*
X-1240790Y-1306170D01*
X-1201420Y-1316750D01*
X-1162050Y-1306170D01*
X-1130550Y-1274430D01*
X-1114810Y-1226790D01*
Y-999250D01*
G01X-977010Y-1316750D02*
Y-999250D01*
X-795910Y-1316750D01*
Y-999250D01*
G01X-618740D02*
X-524260D01*
G01X-571500D02*
Y-1316750D01*
G01X-618740D02*
X-524260D01*
G01X-256540Y-999250D02*
Y-1316750D01*
G01X-347090Y-999250D02*
X-165990D01*
G01X-24260Y-1274430D02*
X7240Y-1300880D01*
X42670Y-1316750D01*
X74170D01*
X105660Y-1300880D01*
X129290Y-1274430D01*
X141100Y-1237370D01*
X133230Y-1200340D01*
X113540Y-1168590D01*
X78100Y-1147410D01*
X30860Y-1136830D01*
X3300Y-1115670D01*
X-8510Y-1078630D01*
X-630Y-1041580D01*
X19050Y-1015130D01*
X46610Y-999250D01*
X74170D01*
X101730Y-1009830D01*
X125350Y-1036290D01*
G01X589910Y-1316750D02*
X688340Y-999250D01*
X786770Y-1316750D01*
G01X751330Y-1205630D02*
X625340D01*
G01X924560Y-1316750D02*
Y-999250D01*
X1022980D01*
X1054480Y-1015130D01*
X1074170Y-1036290D01*
X1082040Y-1078630D01*
X1074170Y-1120960D01*
X1050540Y-1147410D01*
X1022980Y-1163300D01*
X924560D01*
G01X1022980D02*
X1082040Y-1316750D01*
G01X1397000D02*
X1239520D01*
Y-999250D01*
X1397000D01*
G01X1334010Y-1152700D02*
X1239520D01*
G01X1900940Y-999250D02*
X1995420D01*
G01X1948180D02*
Y-1316750D01*
G01X1900940D02*
X1995420D01*
G01X2172590D02*
Y-999250D01*
X2353690Y-1316750D01*
Y-999250D01*
G01X2790690Y-1316750D02*
Y-999250D01*
X2893060Y-1263830D01*
X2995430Y-999250D01*
Y-1316750D01*
G01X3160780Y-999250D02*
X3255260D01*
G01X3208020D02*
Y-1316750D01*
G01X3160780D02*
X3255260D01*
G01X3444240Y-999250D02*
Y-1316750D01*
X3601720D01*
G01X3759200Y-999250D02*
Y-1316750D01*
X3916680D01*
G01X4105660Y-999250D02*
X4200140D01*
G01X4152900D02*
Y-1316750D01*
G01X4105660D02*
X4200140D01*
G01X4365490D02*
Y-999250D01*
X4467860Y-1263830D01*
X4570230Y-999250D01*
Y-1316750D01*
G01X4861560D02*
X4704080D01*
Y-999250D01*
X4861560D01*
G01X4798570Y-1152700D02*
X4704080D01*
G01X5097780Y-999250D02*
Y-1316750D01*
G01X5007230Y-999250D02*
X5188330D01*
G01X5491480Y-1316750D02*
X5334000D01*
Y-999250D01*
X5491480D01*
G01X5428490Y-1152700D02*
X5334000D01*
G01X5648960Y-1316750D02*
Y-999250D01*
X5747380D01*
X5778880Y-1015130D01*
X5798570Y-1036290D01*
X5806440Y-1078630D01*
X5798570Y-1120960D01*
X5774940Y-1147410D01*
X5747380Y-1163300D01*
X5648960D01*
G01X5747380D02*
X5806440Y-1316750D01*
G01X5959980Y-1274430D02*
X5991480Y-1300880D01*
X6026910Y-1316750D01*
X6058410D01*
X6089900Y-1300880D01*
X6113530Y-1274430D01*
X6125340Y-1237370D01*
X6117470Y-1200340D01*
X6097780Y-1168590D01*
X6062340Y-1147410D01*
X6015100Y-1136830D01*
X5987540Y-1115670D01*
X5975730Y-1078630D01*
X5983610Y-1041580D01*
X6003290Y-1015130D01*
X6030850Y-999250D01*
X6058410D01*
X6085970Y-1009830D01*
X6109590Y-1036290D01*
G01X-2232910Y-666750D02*
Y-349250D01*
X-2154180D01*
X-2122680Y-365130D01*
X-2099060Y-386290D01*
X-2079370Y-418040D01*
X-2063620Y-455090D01*
X-2059690Y-508000D01*
X-2063620Y-560920D01*
X-2079370Y-597960D01*
X-2099060Y-629720D01*
X-2122680Y-650880D01*
X-2154180Y-666750D01*
X-2232910D01*
G01X-1910080D02*
Y-349250D01*
X-1811660D01*
X-1780160Y-365130D01*
X-1760470Y-386290D01*
X-1752600Y-428630D01*
X-1760470Y-470960D01*
X-1784100Y-497410D01*
X-1811660Y-513300D01*
X-1910080D01*
G01X-1811660D02*
X-1752600Y-666750D01*
G01X-1563620Y-349250D02*
X-1469140D01*
G01X-1516380D02*
Y-666750D01*
G01X-1563620D02*
X-1469140D01*
G01X-1280160Y-349250D02*
Y-666750D01*
X-1122680D01*
G01X-965200Y-349250D02*
Y-666750D01*
X-807720D01*
G01X-169930Y-375710D02*
X-193550Y-359830D01*
X-221100Y-349250D01*
X-252600D01*
X-288040Y-365130D01*
X-315590Y-391580D01*
X-335280Y-423340D01*
X-351030Y-476250D01*
X-354970Y-523880D01*
X-347090Y-571500D01*
X-335280Y-603250D01*
X-311660Y-635010D01*
X-284100Y-656170D01*
X-256540Y-666750D01*
X-228980D01*
X-201420Y-656170D01*
X-177800Y-640300D01*
X-158110Y-619140D01*
G01X-24260Y-666750D02*
Y-349250D01*
G01X141100D02*
Y-666750D01*
G01Y-508000D02*
X-24260D01*
G01X274950Y-666750D02*
X373380Y-349250D01*
X471810Y-666750D01*
G01X436370Y-555630D02*
X310380D01*
G01X609600Y-666750D02*
Y-349250D01*
X708020D01*
X739520Y-365130D01*
X759210Y-386290D01*
X767080Y-428630D01*
X759210Y-470960D01*
X735580Y-497410D01*
X708020Y-513300D01*
X609600D01*
G01X708020D02*
X767080Y-666750D01*
G01X1003300Y-349250D02*
Y-666750D01*
G01X912750Y-349250D02*
X1093850D01*
G01X1318260Y-677330D02*
X1310380Y-672040D01*
Y-661460D01*
X1318260Y-656170D01*
X1326140Y-661460D01*
Y-672040D01*
X1318260Y-677330D01*
G01Y-534470D02*
X1310380Y-529170D01*
Y-518590D01*
X1318260Y-513300D01*
X1326140Y-518590D01*
Y-529170D01*
X1318260Y-534470D01*
G01X1948180Y-349250D02*
Y-666750D01*
G01X1857630Y-349250D02*
X2038730D01*
G01X2263140Y-666750D02*
X2231640Y-661460D01*
X2204090Y-640300D01*
X2180460Y-608540D01*
X2164710Y-571500D01*
X2156840Y-529170D01*
Y-486830D01*
X2164710Y-444500D01*
X2180460Y-407460D01*
X2204090Y-375710D01*
X2231640Y-354540D01*
X2263140Y-349250D01*
X2294630Y-354540D01*
X2322190Y-375710D01*
X2345820Y-407460D01*
X2361570Y-444500D01*
X2369440Y-486830D01*
Y-529170D01*
X2361570Y-571500D01*
X2345820Y-608540D01*
X2322190Y-640300D01*
X2294630Y-661460D01*
X2263140Y-666750D01*
G01X2499360D02*
Y-349250D01*
X2593850D01*
X2625340Y-365130D01*
X2648970Y-402170D01*
X2656840Y-444500D01*
X2648970Y-486830D01*
X2629280Y-518590D01*
X2593850Y-534470D01*
X2499360D01*
G01X3208020Y-349250D02*
Y-666750D01*
G01X3152900Y-455090D02*
X3263140D01*
G01X3522980Y-666750D02*
X3499360Y-661460D01*
X3475740Y-640300D01*
X3459980Y-603250D01*
X3452110Y-560920D01*
X3459980Y-518590D01*
X3475740Y-481540D01*
X3499360Y-460380D01*
X3522980Y-455090D01*
X3546600Y-460380D01*
X3570220Y-481540D01*
X3585970Y-518590D01*
X3589910Y-560920D01*
X3585970Y-603250D01*
X3570220Y-640300D01*
X3546600Y-661460D01*
X3522980Y-666750D01*
G01X4184390Y-497410D02*
X4200140Y-481540D01*
X4211950Y-455090D01*
X4219830Y-418040D01*
X4211950Y-386290D01*
X4196210Y-365130D01*
X4168650Y-349250D01*
X4062350D01*
Y-666750D01*
X4192270D01*
X4219830Y-645590D01*
X4235580Y-613830D01*
X4243450Y-576790D01*
X4235580Y-539760D01*
X4211950Y-508000D01*
X4184390Y-497410D01*
X4062350D01*
G01X4467860Y-666750D02*
X4436360Y-661460D01*
X4408810Y-640300D01*
X4385180Y-608540D01*
X4369430Y-571500D01*
X4361560Y-529170D01*
Y-486830D01*
X4369430Y-444500D01*
X4385180Y-407460D01*
X4408810Y-375710D01*
X4436360Y-354540D01*
X4467860Y-349250D01*
X4499350Y-354540D01*
X4526910Y-375710D01*
X4550540Y-407460D01*
X4566290Y-444500D01*
X4574160Y-486830D01*
Y-529170D01*
X4566290Y-571500D01*
X4550540Y-608540D01*
X4526910Y-640300D01*
X4499350Y-661460D01*
X4467860Y-666750D01*
G01X4782820Y-349250D02*
Y-666750D01*
G01X4692270Y-349250D02*
X4873370D01*
G01X5097780D02*
Y-666750D01*
G01X5007230Y-349250D02*
X5188330D01*
G01X5412740Y-666750D02*
X5381240Y-661460D01*
X5353690Y-640300D01*
X5330060Y-608540D01*
X5314310Y-571500D01*
X5306440Y-529170D01*
Y-486830D01*
X5314310Y-444500D01*
X5330060Y-407460D01*
X5353690Y-375710D01*
X5381240Y-354540D01*
X5412740Y-349250D01*
X5444230Y-354540D01*
X5471790Y-375710D01*
X5495420Y-407460D01*
X5511170Y-444500D01*
X5519040Y-486830D01*
Y-529170D01*
X5511170Y-571500D01*
X5495420Y-608540D01*
X5471790Y-640300D01*
X5444230Y-661460D01*
X5412740Y-666750D01*
G01X5625330D02*
Y-349250D01*
X5727700Y-613830D01*
X5830070Y-349250D01*
Y-666750D01*
G01X-2540000Y5853150D02*
X-2603500D01*
X-2590800Y5845020D01*
G01X-2540000D02*
Y5861280D01*
G01X-2561170Y5900220D02*
Y5917840D01*
G01X-2592920Y5952040D02*
X-2599270Y5956100D01*
X-2602440Y5960850D01*
X-2603500Y5966260D01*
X-2601380Y5973040D01*
X-2596090Y5977780D01*
X-2589740Y5979130D01*
X-2583390Y5978460D01*
X-2578100Y5975750D01*
X-2567520Y5962200D01*
X-2560110Y5956100D01*
X-2549520Y5952040D01*
X-2540000Y5950690D01*
Y5979130D01*
G01X-1630560Y-1951750D02*
Y-1634250D01*
X-1480940D01*
G01X-1536070Y-1787700D02*
X-1630560D01*
G01X-1288030Y-1634250D02*
X-1193550D01*
G01X-1240790D02*
Y-1951750D01*
G01X-1288030D02*
X-1193550D01*
G01X-1016380D02*
Y-1634250D01*
X-835280Y-1951750D01*
Y-1634250D01*
G01X-658110D02*
X-563630D01*
G01X-610870D02*
Y-1951750D01*
G01X-658110D02*
X-563630D01*
G01X-378590Y-1909430D02*
X-347090Y-1935880D01*
X-311660Y-1951750D01*
X-280160D01*
X-248670Y-1935880D01*
X-225040Y-1909430D01*
X-213230Y-1872370D01*
X-221100Y-1835340D01*
X-240790Y-1803590D01*
X-276230Y-1782410D01*
X-323470Y-1771830D01*
X-351030Y-1750670D01*
X-362840Y-1713630D01*
X-354960Y-1676580D01*
X-335280Y-1650130D01*
X-307720Y-1634250D01*
X-280160D01*
X-252600Y-1644830D01*
X-228980Y-1671290D01*
G01X-63630Y-1951750D02*
Y-1634250D01*
G01X101730D02*
Y-1951750D01*
G01Y-1793000D02*
X-63630D01*
G01X412750Y-1951750D02*
X255270D01*
Y-1634250D01*
X412750D01*
G01X349760Y-1787700D02*
X255270D01*
G01X562360Y-1951750D02*
Y-1634250D01*
X641090D01*
X672590Y-1650130D01*
X696210Y-1671290D01*
X715900Y-1703040D01*
X731650Y-1740090D01*
X735580Y-1793000D01*
X731650Y-1845920D01*
X715900Y-1882960D01*
X696210Y-1914720D01*
X672590Y-1935880D01*
X641090Y-1951750D01*
X562360D01*
G01X845820Y-2057580D02*
X1082040D01*
G01X1196210Y-1909430D02*
X1227710Y-1935880D01*
X1263140Y-1951750D01*
X1294640D01*
X1326130Y-1935880D01*
X1349760Y-1909430D01*
X1361570Y-1872370D01*
X1353700Y-1835340D01*
X1334010Y-1803590D01*
X1298570Y-1782410D01*
X1251330Y-1771830D01*
X1223770Y-1750670D01*
X1211960Y-1713630D01*
X1219840Y-1676580D01*
X1239520Y-1650130D01*
X1267080Y-1634250D01*
X1294640D01*
X1322200Y-1644830D01*
X1345820Y-1671290D01*
G01X1546610Y-1634250D02*
X1641090D01*
G01X1593850D02*
Y-1951750D01*
G01X1546610D02*
X1641090D01*
G01X1834000Y-1634250D02*
X1983620D01*
X1834000Y-1951750D01*
X1983620D01*
G01X2302510D02*
X2145030D01*
Y-1634250D01*
X2302510D01*
G01X2239520Y-1787700D02*
X2145030D01*
G01X-1651850Y685780D02*
Y622280D01*
X-1624750D01*
G01X-1595290Y675200D02*
X-1591230Y681550D01*
X-1586480Y684720D01*
X-1581070Y685780D01*
X-1574290Y683660D01*
X-1569550Y678370D01*
X-1568200Y672020D01*
X-1568870Y665670D01*
X-1571580Y660380D01*
X-1585130Y649800D01*
X-1591230Y642390D01*
X-1595290Y631800D01*
X-1596640Y622280D01*
X-1568200D01*
G01X-1465240Y656150D02*
X-1462530Y659320D01*
X-1460500Y664610D01*
X-1459140Y672020D01*
X-1460500Y678370D01*
X-1463210Y682600D01*
X-1467950Y685780D01*
X-1486240D01*
Y622280D01*
X-1463890D01*
X-1459140Y626510D01*
X-1456440Y632860D01*
X-1455080Y640270D01*
X-1456440Y647680D01*
X-1460500Y654030D01*
X-1465240Y656150D01*
X-1486240D01*
G01X-1414780Y622280D02*
X-1420200Y623340D01*
X-1424940Y627570D01*
X-1429000Y633920D01*
X-1431710Y641330D01*
X-1433070Y649800D01*
Y658260D01*
X-1431710Y666730D01*
X-1429000Y674140D01*
X-1424940Y680490D01*
X-1420200Y684720D01*
X-1414780Y685780D01*
X-1409360Y684720D01*
X-1404620Y680490D01*
X-1400560Y674140D01*
X-1397850Y666730D01*
X-1396490Y658260D01*
Y649800D01*
X-1397850Y641330D01*
X-1400560Y633920D01*
X-1404620Y627570D01*
X-1409360Y623340D01*
X-1414780Y622280D01*
G01X-1358900Y685780D02*
Y622280D01*
G01X-1374480Y685780D02*
X-1343320D01*
G01X-1303020D02*
Y622280D01*
G01X-1318600Y685780D02*
X-1287440D01*
G01X-1247140Y622280D02*
X-1252560Y623340D01*
X-1257300Y627570D01*
X-1261360Y633920D01*
X-1264070Y641330D01*
X-1265430Y649800D01*
Y658260D01*
X-1264070Y666730D01*
X-1261360Y674140D01*
X-1257300Y680490D01*
X-1252560Y684720D01*
X-1247140Y685780D01*
X-1241720Y684720D01*
X-1236980Y680490D01*
X-1232920Y674140D01*
X-1230210Y666730D01*
X-1228850Y658260D01*
Y649800D01*
X-1230210Y641330D01*
X-1232920Y633920D01*
X-1236980Y627570D01*
X-1241720Y623340D01*
X-1247140Y622280D01*
G01X-1208870D02*
Y685780D01*
X-1191260Y632860D01*
X-1173650Y685780D01*
Y622280D01*
G01X-1064600Y680490D02*
X-1068660Y683660D01*
X-1073400Y685780D01*
X-1078820D01*
X-1084920Y682600D01*
X-1089660Y677310D01*
X-1093050Y670960D01*
X-1095760Y660380D01*
X-1096430Y650850D01*
X-1095080Y641330D01*
X-1093050Y634980D01*
X-1088980Y628630D01*
X-1084240Y624400D01*
X-1079500Y622280D01*
X-1074760D01*
X-1070020Y624400D01*
X-1065950Y627570D01*
X-1062570Y631800D01*
G01X-1023620Y622280D02*
X-1029040Y623340D01*
X-1033780Y627570D01*
X-1037840Y633920D01*
X-1040550Y641330D01*
X-1041910Y649800D01*
Y658260D01*
X-1040550Y666730D01*
X-1037840Y674140D01*
X-1033780Y680490D01*
X-1029040Y684720D01*
X-1023620Y685780D01*
X-1018200Y684720D01*
X-1013460Y680490D01*
X-1009400Y674140D01*
X-1006690Y666730D01*
X-1005330Y658260D01*
Y649800D01*
X-1006690Y641330D01*
X-1009400Y633920D01*
X-1013460Y627570D01*
X-1018200Y623340D01*
X-1023620Y622280D01*
G01X-983320D02*
Y685780D01*
X-952160Y622280D01*
Y685780D01*
G01X-926760Y622280D02*
Y685780D01*
X-913210D01*
X-907800Y682600D01*
X-903730Y678370D01*
X-900340Y672020D01*
X-897640Y664610D01*
X-896960Y654030D01*
X-897640Y643450D01*
X-900340Y636040D01*
X-903730Y629690D01*
X-907800Y625450D01*
X-913210Y622280D01*
X-926760D01*
G01X-870880Y685780D02*
Y640270D01*
X-868170Y630740D01*
X-862750Y624400D01*
X-855980Y622280D01*
X-849210Y624400D01*
X-843790Y630740D01*
X-841080Y640270D01*
Y685780D01*
G01X-785200Y680490D02*
X-789260Y683660D01*
X-794000Y685780D01*
X-799420D01*
X-805520Y682600D01*
X-810260Y677310D01*
X-813650Y670960D01*
X-816360Y660380D01*
X-817030Y650850D01*
X-815680Y641330D01*
X-813650Y634980D01*
X-809580Y628630D01*
X-804840Y624400D01*
X-800100Y622280D01*
X-795360D01*
X-790620Y624400D01*
X-786550Y627570D01*
X-783170Y631800D01*
G01X-744220Y685780D02*
Y622280D01*
G01X-759800Y685780D02*
X-728640D01*
G01X-688340Y622280D02*
X-693760Y623340D01*
X-698500Y627570D01*
X-702560Y633920D01*
X-705270Y641330D01*
X-706630Y649800D01*
Y658260D01*
X-705270Y666730D01*
X-702560Y674140D01*
X-698500Y680490D01*
X-693760Y684720D01*
X-688340Y685780D01*
X-682920Y684720D01*
X-678180Y680490D01*
X-674120Y674140D01*
X-671410Y666730D01*
X-670050Y658260D01*
Y649800D01*
X-671410Y641330D01*
X-674120Y633920D01*
X-678180Y627570D01*
X-682920Y623340D01*
X-688340Y622280D01*
G01X-646010D02*
Y685780D01*
X-629070D01*
X-623650Y682600D01*
X-620270Y678370D01*
X-618910Y669900D01*
X-620270Y661440D01*
X-624330Y656150D01*
X-629070Y652970D01*
X-646010D01*
G01X-629070D02*
X-618910Y622280D01*
G01X-1541440Y535500D02*
X-1511640Y582070D01*
G01X-1526540Y590540D02*
Y527040D01*
G01X-1511640Y535500D02*
X-1541440Y582070D01*
G01X-1546860Y558790D02*
X-1506220D01*
G01X-1373120Y546080D02*
X-1367710Y540790D01*
X-1361610Y537620D01*
X-1356190D01*
X-1350770Y540790D01*
X-1346710Y546080D01*
X-1344680Y553500D01*
X-1346030Y560900D01*
X-1349420Y567250D01*
X-1355510Y571490D01*
X-1363640Y573600D01*
X-1368380Y577840D01*
X-1370420Y585240D01*
X-1369060Y592650D01*
X-1365670Y597940D01*
X-1360930Y601120D01*
X-1356190D01*
X-1351450Y599000D01*
X-1347380Y593710D01*
G01X-1317920Y601120D02*
Y555610D01*
X-1315210Y546080D01*
X-1309790Y539740D01*
X-1303020Y537620D01*
X-1296250Y539740D01*
X-1290830Y546080D01*
X-1288120Y555610D01*
Y601120D01*
G01X-1260690Y537620D02*
Y601120D01*
X-1243750D01*
X-1238330Y597940D01*
X-1234950Y593710D01*
X-1233590Y585240D01*
X-1234950Y576780D01*
X-1239010Y571490D01*
X-1243750Y568310D01*
X-1260690D01*
G01X-1243750D02*
X-1233590Y537620D01*
G01X-1204130D02*
Y601120D01*
X-1178390D01*
G01X-1187870Y570430D02*
X-1204130D01*
G01X-1152310Y537620D02*
X-1135380Y601120D01*
X-1118450Y537620D01*
G01X-1124540Y559840D02*
X-1146220D01*
G01X-1064600Y595830D02*
X-1068660Y599000D01*
X-1073400Y601120D01*
X-1078820D01*
X-1084920Y597940D01*
X-1089660Y592650D01*
X-1093050Y586300D01*
X-1095760Y575720D01*
X-1096430Y566190D01*
X-1095080Y556670D01*
X-1093050Y550320D01*
X-1088980Y543970D01*
X-1084240Y539740D01*
X-1079500Y537620D01*
X-1074760D01*
X-1070020Y539740D01*
X-1065950Y542910D01*
X-1062570Y547140D01*
G01X-1010070Y537620D02*
X-1037170D01*
Y601120D01*
X-1010070D01*
G01X-1020910Y570430D02*
X-1037170D01*
G01X-1541440Y3207220D02*
X-1511640Y3253790D01*
G01X-1526540Y3262260D02*
Y3198760D01*
G01X-1511640Y3207220D02*
X-1541440Y3253790D01*
G01X-1546860Y3230510D02*
X-1506220D01*
G01X-1373800Y3209340D02*
Y3272840D01*
X-1360250D01*
X-1354840Y3269660D01*
X-1350770Y3265430D01*
X-1347380Y3259080D01*
X-1344680Y3251670D01*
X-1344000Y3241090D01*
X-1344680Y3230510D01*
X-1347380Y3223100D01*
X-1350770Y3216750D01*
X-1354840Y3212510D01*
X-1360250Y3209340D01*
X-1373800D01*
G01X-1311150Y3272840D02*
X-1294890D01*
G01X-1303020D02*
Y3209340D01*
G01X-1311150D02*
X-1294890D01*
G01X-1233590D02*
X-1260690D01*
Y3272840D01*
X-1233590D01*
G01X-1244430Y3242150D02*
X-1260690D01*
G01X-1204810Y3272840D02*
Y3209340D01*
X-1177710D01*
G01X-1121830D02*
X-1148930D01*
Y3272840D01*
X-1121830D01*
G01X-1132670Y3242150D02*
X-1148930D01*
G01X-1064600Y3267550D02*
X-1068660Y3270720D01*
X-1073400Y3272840D01*
X-1078820D01*
X-1084920Y3269660D01*
X-1089660Y3264370D01*
X-1093050Y3258020D01*
X-1095760Y3247440D01*
X-1096430Y3237910D01*
X-1095080Y3228390D01*
X-1093050Y3222040D01*
X-1088980Y3215690D01*
X-1084240Y3211460D01*
X-1079500Y3209340D01*
X-1074760D01*
X-1070020Y3211460D01*
X-1065950Y3214630D01*
X-1062570Y3218860D01*
G01X-1023620Y3272840D02*
Y3209340D01*
G01X-1039200Y3272840D02*
X-1008040D01*
G01X-981290Y3209340D02*
Y3272840D01*
X-964350D01*
X-958930Y3269660D01*
X-955550Y3265430D01*
X-954190Y3256960D01*
X-955550Y3248500D01*
X-959610Y3243210D01*
X-964350Y3240030D01*
X-981290D01*
G01X-964350D02*
X-954190Y3209340D01*
G01X-919990Y3272840D02*
X-903730D01*
G01X-911860D02*
Y3209340D01*
G01X-919990D02*
X-903730D01*
G01X-841080Y3267550D02*
X-845140Y3270720D01*
X-849880Y3272840D01*
X-855300D01*
X-861400Y3269660D01*
X-866140Y3264370D01*
X-869530Y3258020D01*
X-872240Y3247440D01*
X-872910Y3237910D01*
X-871560Y3228390D01*
X-869530Y3222040D01*
X-865460Y3215690D01*
X-860720Y3211460D01*
X-855980Y3209340D01*
X-851240D01*
X-846500Y3211460D01*
X-842430Y3214630D01*
X-839050Y3218860D01*
G01X-1541440Y5788370D02*
X-1511640Y5834940D01*
G01X-1526540Y5843410D02*
Y5779910D01*
G01X-1511640Y5788370D02*
X-1541440Y5834940D01*
G01X-1546860Y5811660D02*
X-1506220D01*
G01X-1373120Y5798950D02*
X-1367710Y5793660D01*
X-1361610Y5790490D01*
X-1356190D01*
X-1350770Y5793660D01*
X-1346710Y5798950D01*
X-1344680Y5806370D01*
X-1346030Y5813770D01*
X-1349420Y5820120D01*
X-1355510Y5824360D01*
X-1363640Y5826470D01*
X-1368380Y5830710D01*
X-1370420Y5838110D01*
X-1369060Y5845520D01*
X-1365670Y5850810D01*
X-1360930Y5853990D01*
X-1356190D01*
X-1351450Y5851870D01*
X-1347380Y5846580D01*
G01X-1317920Y5853990D02*
Y5808480D01*
X-1315210Y5798950D01*
X-1309790Y5792610D01*
X-1303020Y5790490D01*
X-1296250Y5792610D01*
X-1290830Y5798950D01*
X-1288120Y5808480D01*
Y5853990D01*
G01X-1260690Y5790490D02*
Y5853990D01*
X-1243750D01*
X-1238330Y5850810D01*
X-1234950Y5846580D01*
X-1233590Y5838110D01*
X-1234950Y5829650D01*
X-1239010Y5824360D01*
X-1243750Y5821180D01*
X-1260690D01*
G01X-1243750D02*
X-1233590Y5790490D01*
G01X-1204130D02*
Y5853990D01*
X-1178390D01*
G01X-1187870Y5823300D02*
X-1204130D01*
G01X-1152310Y5790490D02*
X-1135380Y5853990D01*
X-1118450Y5790490D01*
G01X-1124540Y5812710D02*
X-1146220D01*
G01X-1064600Y5848700D02*
X-1068660Y5851870D01*
X-1073400Y5853990D01*
X-1078820D01*
X-1084920Y5850810D01*
X-1089660Y5845520D01*
X-1093050Y5839170D01*
X-1095760Y5828590D01*
X-1096430Y5819060D01*
X-1095080Y5809540D01*
X-1093050Y5803190D01*
X-1088980Y5796840D01*
X-1084240Y5792610D01*
X-1079500Y5790490D01*
X-1074760D01*
X-1070020Y5792610D01*
X-1065950Y5795780D01*
X-1062570Y5800010D01*
G01X-1010070Y5790490D02*
X-1037170D01*
Y5853990D01*
X-1010070D01*
G01X-1020910Y5823300D02*
X-1037170D01*
G01X-1651850Y5748170D02*
Y5684670D01*
X-1624750D01*
G01X-1582420D02*
Y5748170D01*
X-1590550Y5735470D01*
G01Y5684670D02*
X-1574290D01*
G01X-1470660Y5748170D02*
Y5684670D01*
G01X-1486240Y5748170D02*
X-1455080D01*
G01X-1414780Y5684670D02*
X-1420200Y5685730D01*
X-1424940Y5689960D01*
X-1429000Y5696310D01*
X-1431710Y5703720D01*
X-1433070Y5712190D01*
Y5720650D01*
X-1431710Y5729120D01*
X-1429000Y5736530D01*
X-1424940Y5742880D01*
X-1420200Y5747110D01*
X-1414780Y5748170D01*
X-1409360Y5747110D01*
X-1404620Y5742880D01*
X-1400560Y5736530D01*
X-1397850Y5729120D01*
X-1396490Y5720650D01*
Y5712190D01*
X-1397850Y5703720D01*
X-1400560Y5696310D01*
X-1404620Y5689960D01*
X-1409360Y5685730D01*
X-1414780Y5684670D01*
G01X-1372450D02*
Y5748170D01*
X-1356190D01*
X-1350770Y5744990D01*
X-1346710Y5737590D01*
X-1345350Y5729120D01*
X-1346710Y5720650D01*
X-1350090Y5714300D01*
X-1356190Y5711130D01*
X-1372450D01*
G01X-1232240Y5742880D02*
X-1236300Y5746050D01*
X-1241040Y5748170D01*
X-1246460D01*
X-1252560Y5744990D01*
X-1257300Y5739700D01*
X-1260690Y5733350D01*
X-1263400Y5722770D01*
X-1264070Y5713240D01*
X-1262720Y5703720D01*
X-1260690Y5697370D01*
X-1256620Y5691020D01*
X-1251880Y5686790D01*
X-1247140Y5684670D01*
X-1242400D01*
X-1237660Y5686790D01*
X-1233590Y5689960D01*
X-1230210Y5694190D01*
G01X-1191260Y5684670D02*
X-1196680Y5685730D01*
X-1201420Y5689960D01*
X-1205480Y5696310D01*
X-1208190Y5703720D01*
X-1209550Y5712190D01*
Y5720650D01*
X-1208190Y5729120D01*
X-1205480Y5736530D01*
X-1201420Y5742880D01*
X-1196680Y5747110D01*
X-1191260Y5748170D01*
X-1185840Y5747110D01*
X-1181100Y5742880D01*
X-1177040Y5736530D01*
X-1174330Y5729120D01*
X-1172970Y5720650D01*
Y5712190D01*
X-1174330Y5703720D01*
X-1177040Y5696310D01*
X-1181100Y5689960D01*
X-1185840Y5685730D01*
X-1191260Y5684670D01*
G01X-1150960D02*
Y5748170D01*
X-1119800Y5684670D01*
Y5748170D01*
G01X-1094400Y5684670D02*
Y5748170D01*
X-1080850D01*
X-1075440Y5744990D01*
X-1071370Y5740760D01*
X-1067980Y5734410D01*
X-1065280Y5727000D01*
X-1064600Y5716420D01*
X-1065280Y5705840D01*
X-1067980Y5698430D01*
X-1071370Y5692080D01*
X-1075440Y5687840D01*
X-1080850Y5684670D01*
X-1094400D01*
G01X-1038520Y5748170D02*
Y5702660D01*
X-1035810Y5693130D01*
X-1030390Y5686790D01*
X-1023620Y5684670D01*
X-1016850Y5686790D01*
X-1011430Y5693130D01*
X-1008720Y5702660D01*
Y5748170D01*
G01X-952840Y5742880D02*
X-956900Y5746050D01*
X-961640Y5748170D01*
X-967060D01*
X-973160Y5744990D01*
X-977900Y5739700D01*
X-981290Y5733350D01*
X-984000Y5722770D01*
X-984670Y5713240D01*
X-983320Y5703720D01*
X-981290Y5697370D01*
X-977220Y5691020D01*
X-972480Y5686790D01*
X-967740Y5684670D01*
X-963000D01*
X-958260Y5686790D01*
X-954190Y5689960D01*
X-950810Y5694190D01*
G01X-911860Y5748170D02*
Y5684670D01*
G01X-927440Y5748170D02*
X-896280D01*
G01X-855980Y5684670D02*
X-861400Y5685730D01*
X-866140Y5689960D01*
X-870200Y5696310D01*
X-872910Y5703720D01*
X-874270Y5712190D01*
Y5720650D01*
X-872910Y5729120D01*
X-870200Y5736530D01*
X-866140Y5742880D01*
X-861400Y5747110D01*
X-855980Y5748170D01*
X-850560Y5747110D01*
X-845820Y5742880D01*
X-841760Y5736530D01*
X-839050Y5729120D01*
X-837690Y5720650D01*
Y5712190D01*
X-839050Y5703720D01*
X-841760Y5696310D01*
X-845820Y5689960D01*
X-850560Y5685730D01*
X-855980Y5684670D01*
G01X-813650D02*
Y5748170D01*
X-796710D01*
X-791290Y5744990D01*
X-787910Y5740760D01*
X-786550Y5732290D01*
X-787910Y5723830D01*
X-791970Y5718540D01*
X-796710Y5715360D01*
X-813650D01*
G01X-796710D02*
X-786550Y5684670D01*
G01X-453390Y-2269250D02*
X-484890Y-2279830D01*
X-508510Y-2306290D01*
X-524260Y-2338040D01*
X-536070Y-2380380D01*
X-540000Y-2428000D01*
X-536070Y-2475630D01*
X-524260Y-2517960D01*
X-508510Y-2549720D01*
X-484890Y-2576170D01*
X-453390Y-2586750D01*
X-421900Y-2576170D01*
X-398270Y-2549720D01*
X-382520Y-2517960D01*
X-370710Y-2475630D01*
X-366780Y-2428000D01*
X-370710Y-2380380D01*
X-382520Y-2338040D01*
X-398270Y-2306290D01*
X-421900Y-2279830D01*
X-453390Y-2269250D01*
G01X-138430Y-2597330D02*
X-146310Y-2592040D01*
Y-2581460D01*
X-138430Y-2576170D01*
X-130550Y-2581460D01*
Y-2592040D01*
X-138430Y-2597330D01*
G01X89920Y-2523250D02*
X113530Y-2560300D01*
X145030Y-2581460D01*
X180470Y-2586750D01*
X211970Y-2581460D01*
X243460Y-2555010D01*
X263140Y-2523250D01*
X267080Y-2491500D01*
X259210Y-2454470D01*
X231650Y-2428000D01*
X204090Y-2417410D01*
X168650D01*
G01X204090D02*
X227710Y-2401540D01*
X247400Y-2375090D01*
X255270Y-2343340D01*
X247400Y-2311580D01*
X227710Y-2285130D01*
X192280Y-2269250D01*
X156850Y-2274540D01*
X121410Y-2295710D01*
G01X404880Y-2523250D02*
X428490Y-2560300D01*
X459990Y-2581460D01*
X495430Y-2586750D01*
X526930Y-2581460D01*
X558420Y-2555010D01*
X578100Y-2523250D01*
X582040Y-2491500D01*
X574170Y-2454470D01*
X546610Y-2428000D01*
X519050Y-2417410D01*
X483610D01*
G01X519050D02*
X542670Y-2401540D01*
X562360Y-2375090D01*
X570230Y-2343340D01*
X562360Y-2311580D01*
X542670Y-2285130D01*
X507240Y-2269250D01*
X471810Y-2274540D01*
X436370Y-2295710D01*
G01X806450Y-2269250D02*
X774950Y-2279830D01*
X751330Y-2306290D01*
X735580Y-2338040D01*
X723770Y-2380380D01*
X719840Y-2428000D01*
X723770Y-2475630D01*
X735580Y-2517960D01*
X751330Y-2549720D01*
X774950Y-2576170D01*
X806450Y-2586750D01*
X837940Y-2576170D01*
X861570Y-2549720D01*
X877320Y-2517960D01*
X889130Y-2475630D01*
X893060Y-2428000D01*
X889130Y-2380380D01*
X877320Y-2338040D01*
X861570Y-2306290D01*
X837940Y-2279830D01*
X806450Y-2269250D01*
G01X1046600Y-2322170D02*
X1070230Y-2290420D01*
X1097790Y-2274540D01*
X1129290Y-2269250D01*
X1168650Y-2279830D01*
X1196220Y-2306290D01*
X1204090Y-2338040D01*
X1200150Y-2369800D01*
X1184400Y-2396250D01*
X1105660Y-2449170D01*
X1070230Y-2486210D01*
X1046600Y-2539140D01*
X1038730Y-2586750D01*
X1204090D01*
G01X3641090D02*
Y-2269250D01*
X3735580D01*
X3767070Y-2285130D01*
X3790700Y-2322170D01*
X3798570Y-2364500D01*
X3790700Y-2406830D01*
X3771010Y-2438590D01*
X3735580Y-2454470D01*
X3641090D01*
G01X3956050Y-2269250D02*
Y-2586750D01*
X4113530D01*
G01X4251320D02*
X4349750Y-2269250D01*
X4448180Y-2586750D01*
G01X4412740Y-2475630D02*
X4286750D01*
G01X4664710Y-2269250D02*
Y-2586750D01*
G01X4574160Y-2269250D02*
X4755260D01*
G01X5058410Y-2586750D02*
X4900930D01*
Y-2269250D01*
X5058410D01*
G01X4995420Y-2422700D02*
X4900930D01*
G01X5208020Y-2586750D02*
Y-2269250D01*
X5286750D01*
X5318250Y-2285130D01*
X5341870Y-2306290D01*
X5361560Y-2338040D01*
X5377310Y-2375090D01*
X5381240Y-2428000D01*
X5377310Y-2480920D01*
X5361560Y-2517960D01*
X5341870Y-2549720D01*
X5318250Y-2570880D01*
X5286750Y-2586750D01*
X5208020D01*
G01X3641090Y-1951750D02*
Y-1634250D01*
X3735580D01*
X3767070Y-1650130D01*
X3790700Y-1687170D01*
X3798570Y-1729500D01*
X3790700Y-1771830D01*
X3771010Y-1803590D01*
X3735580Y-1819470D01*
X3641090D01*
G01X3956050Y-1634250D02*
Y-1951750D01*
X4113530D01*
G01X4251320D02*
X4349750Y-1634250D01*
X4448180Y-1951750D01*
G01X4412740Y-1840630D02*
X4286750D01*
G01X4664710Y-1634250D02*
Y-1951750D01*
G01X4574160Y-1634250D02*
X4755260D01*
G01X5058410Y-1951750D02*
X4900930D01*
Y-1634250D01*
X5058410D01*
G01X4995420Y-1787700D02*
X4900930D01*
G01X5208020Y-1951750D02*
Y-1634250D01*
X5286750D01*
X5318250Y-1650130D01*
X5341870Y-1671290D01*
X5361560Y-1703040D01*
X5377310Y-1740090D01*
X5381240Y-1793000D01*
X5377310Y-1845920D01*
X5361560Y-1882960D01*
X5341870Y-1914720D01*
X5318250Y-1935880D01*
X5286750Y-1951750D01*
X5208020D01*
G01X6861560Y-2523250D02*
X6885170Y-2560300D01*
X6916670Y-2581460D01*
X6952110Y-2586750D01*
X6983610Y-2581460D01*
X7015100Y-2555010D01*
X7034780Y-2523250D01*
X7038720Y-2491500D01*
X7030850Y-2454470D01*
X7003290Y-2428000D01*
X6975730Y-2417410D01*
X6940290D01*
G01X6975730D02*
X6999350Y-2401540D01*
X7019040Y-2375090D01*
X7026910Y-2343340D01*
X7019040Y-2311580D01*
X6999350Y-2285130D01*
X6963920Y-2269250D01*
X6928490Y-2274540D01*
X6893050Y-2295710D01*
G01X7188320Y-2322170D02*
X7211950Y-2290420D01*
X7239510Y-2274540D01*
X7271010Y-2269250D01*
X7310370Y-2279830D01*
X7337940Y-2306290D01*
X7345810Y-2338040D01*
X7341870Y-2369800D01*
X7326120Y-2396250D01*
X7247380Y-2449170D01*
X7211950Y-2486210D01*
X7188320Y-2539140D01*
X7180450Y-2586750D01*
X7345810D01*
G01X6790690Y-1951750D02*
X6759190Y-1946460D01*
X6731640Y-1925300D01*
X6708010Y-1893540D01*
X6692260Y-1856500D01*
X6684390Y-1814170D01*
Y-1771830D01*
X6692260Y-1729500D01*
X6708010Y-1692460D01*
X6731640Y-1660710D01*
X6759190Y-1639540D01*
X6790690Y-1634250D01*
X6822180Y-1639540D01*
X6849740Y-1660710D01*
X6873370Y-1692460D01*
X6889120Y-1729500D01*
X6896990Y-1771830D01*
Y-1814170D01*
X6889120Y-1856500D01*
X6873370Y-1893540D01*
X6849740Y-1925300D01*
X6822180Y-1946460D01*
X6790690Y-1951750D01*
G01X6822180Y-1867080D02*
X6869430Y-1951750D01*
G01X7105650Y-1634250D02*
Y-1951750D01*
G01X7015100Y-1634250D02*
X7196200D01*
G01X7420610Y-1951750D02*
Y-1808880D01*
X7341870Y-1634250D01*
G01X7499350D02*
X7420610Y-1808880D01*
G01X-4508500Y-2745500D02*
Y-190500D01*
X8089900D01*
Y-2745500D01*
X-4508500D01*
G01Y-2110500D02*
X8089900D01*
G01X-4508500Y-1475500D02*
X8089900D01*
G01X-4508500Y-840500D02*
X8089900D01*
G01X-3238500Y706940D02*
Y5711740D01*
X-1714500D01*
Y706940D01*
X-3238500D01*
G01X-2225040Y-1475500D02*
Y-2745500D01*
G01X-14000Y-14000D02*
Y3986000D01*
X3986000D01*
Y-14000D01*
X-14000D01*
G01X2893060Y-1475500D02*
Y-2745500D01*
G01X6121400Y-1475500D02*
Y-2745500D01*
M02*
