G04 ================== begin FILE IDENTIFICATION RECORD ==================*
G04 Layout Name:  PROIECT_APD_SCHEMATIC_ANALOG.brd*
G04 Film Name:    SPTOP*
G04 File Format:  Gerber RS274X*
G04 File Origin:  Cadence Allegro 17.2-S025*
G04 Origin Date:  Sat Jan 24 00:14:23 2026*
G04 *
G04 Layer:  VIA CLASS/PASTEMASK_TOP*
G04 Layer:  PIN/PASTEMASK_TOP*
G04 Layer:  PACKAGE GEOMETRY/PASTEMASK_TOP*
G04 *
G04 Offset:    (0.0000 0.0000)*
G04 Mirror:    No*
G04 Mode:      Positive*
G04 Rotation:  0*
G04 FullContactRelief:  No*
G04 UndefLineWidth:     0.1200*
G04 ================== end FILE IDENTIFICATION RECORD ====================*
%FSLAX25Y25*MOMM*%
%IR0*IPPOS*OFA0.00000B0.00000*MIA0B0*SFA1.00000B1.00000*%
%ADD10C,1.2*%
%ADD11R,3.05X1.8001*%
%ADD13R,1.1501X1.65*%
%ADD14R,1.65X1.1501*%
%ADD12R,2.54X1.524*%
%ADD15R,1.524X2.54*%
%ADD18R,3.4501X1.65*%
%ADD16R,1.1501X1.1999*%
%ADD17R,1.1999X1.1501*%
%LPD*%
G75*
G54D10*
X500000Y500000D03*
X3500000Y3500000D03*
G54D11*
X440000Y1280000D03*
X1980000Y1640000D03*
G54D12*
X440000Y1534900D03*
Y1865100D03*
Y2505100D03*
Y2174900D03*
X460000Y2814900D03*
Y3145100D03*
X1380000Y1014900D03*
Y1345100D03*
X1480000Y2665100D03*
Y2334900D03*
Y3305100D03*
Y2974900D03*
G54D13*
X860000Y2640000D03*
X1000000Y3280000D03*
X800000D03*
X1060000Y2640000D03*
X1980000Y840000D03*
X2180000D03*
X2380000Y700000D03*
X2580000D03*
X2449500Y2413000D03*
X2249500D03*
X2884500Y571500D03*
X3084500D03*
X2757500Y1651000D03*
X2957500D03*
X3265500Y2032000D03*
X3140000Y1340000D03*
X3340000D03*
X2957500Y1968500D03*
X2757500D03*
X3202000Y2413000D03*
X3465500Y2032000D03*
X3402000Y2413000D03*
G54D14*
X820000Y2440000D03*
Y2240000D03*
X1040000Y3060000D03*
Y2860000D03*
X2220000Y300000D03*
Y500000D03*
X1968500Y1932000D03*
Y2132000D03*
X2960000Y1060000D03*
Y860000D03*
X3160000Y1600000D03*
Y1800000D03*
X3420000Y720000D03*
Y920000D03*
X3580000Y1740000D03*
Y1540000D03*
X3600000Y2540000D03*
Y2340000D03*
G54D15*
X1294900Y580000D03*
X1625100D03*
X1954900Y1220000D03*
X2285100D03*
X3154900Y3000000D03*
X3485100D03*
G54D16*
X2580000Y490000D03*
Y310000D03*
G54D17*
X1890000Y2360000D03*
X2070000D03*
X3090000Y320000D03*
X2910000D03*
X2890000Y2280000D03*
X2710000D03*
X3328500Y2667000D03*
X3148500D03*
X3590000Y1120000D03*
X3410000D03*
G54D18*
X2690000Y2860000D03*
X2070000D03*
M02*
