G04 ================== begin FILE IDENTIFICATION RECORD ==================*
G04 Layout Name:  PROIECT_APD_SCHEMATIC_ANALOG.brd*
G04 Film Name:    TOP*
G04 File Format:  Gerber RS274X*
G04 File Origin:  Cadence Allegro 17.2-S025*
G04 Origin Date:  Fri Jan 23 23:38:31 2026*
G04 *
G04 Layer:  ETCH/TOP*
G04 Layer:  PIN/TOP*
G04 Layer:  VIA CLASS/TOP*
G04 *
G04 Offset:    (0.0000 0.0000)*
G04 Mirror:    No*
G04 Mode:      Positive*
G04 Rotation:  0*
G04 FullContactRelief:  No*
G04 UndefLineWidth:     0.0000*
G04 ================== end FILE IDENTIFICATION RECORD ====================*
%FSLAX25Y25*MOMM*%
%IR0*IPPOS*OFA0.00000B0.00000*MIA0B0*SFA1.00000B1.00000*%
%ADD19R,.95X1.1001*%
%ADD21R,1.1001X.95*%
%ADD15R,.95X1.4501*%
%ADD16R,1.4501X.95*%
%ADD14C,.6096*%
%ADD18R,1.3X2.*%
%ADD10C,1.*%
%ADD11R,3.05X1.8001*%
%ADD13R,2.54X1.524*%
%ADD17R,1.524X2.54*%
%ADD12R,1.3X1.3*%
%ADD22R,3.4501X1.65*%
%ADD23R,.4318X.508*%
%ADD20R,.508X.4318*%
%ADD24C,.4*%
G75*
%LPD*%
G75*
G54D10*
X500000Y500000D03*
X3500000Y3500000D03*
G54D20*
X2271100Y1763480D03*
Y1953980D03*
X2448900Y1860000D03*
G54D11*
X440000Y1280000D03*
X1980000Y1640000D03*
G54D12*
X1000000Y1950000D03*
Y1720000D03*
G54D21*
X1890000Y2360000D03*
X2070000D03*
X3090000Y320000D03*
X2910000D03*
X2890000Y2280000D03*
X2710000D03*
X3328500Y2667000D03*
X3148500D03*
X3590000Y1120000D03*
X3410000D03*
G54D22*
X2690000Y2860000D03*
X2070000D03*
G54D13*
X440000Y1534900D03*
Y1865100D03*
Y2505100D03*
Y2174900D03*
X460000Y2814900D03*
Y3145100D03*
X1380000Y1014900D03*
Y1345100D03*
X1480000Y2665100D03*
Y2334900D03*
Y3305100D03*
Y2974900D03*
G54D23*
X2827020Y1181100D03*
X2636520D03*
X2730500Y1358900D03*
G54D14*
X698500Y1534900D03*
X952500Y1524000D03*
X825500Y1778000D03*
Y1333500D03*
X698500Y1905000D03*
Y2032000D03*
X820000Y2101000D03*
X698500Y2540000D03*
X1778000Y2286000D03*
X1143000D03*
X1206500Y2921000D03*
X2476500Y1714500D03*
Y1333500D03*
X2413000Y2222500D03*
X2159000Y2159000D03*
X3238500Y380790D03*
Y698500D03*
X2603500Y1397000D03*
X2857500D03*
X2608400Y1528900D03*
X2794000Y1778000D03*
X2603500Y2032000D03*
X2984500Y2540000D03*
X2857500Y2165210D03*
X3111320Y2413000D03*
X2603500D03*
X3048000Y2159000D03*
X3429000Y1524000D03*
X3562700Y2222500D03*
G54D24*
G01X825500Y1333500D02*
X762000Y1270000D01*
Y1206500D01*
X635000Y1079500D01*
X548000D01*
X508000Y1119500D01*
Y1212000D01*
X440000Y1280000D01*
G01X1294900Y580000D02*
X1174500D01*
X1016000Y738500D01*
Y1270000D01*
X1091100Y1345100D01*
X1380000D01*
G01X440000Y1534900D02*
X698500D01*
G01X1000000Y1720000D02*
X895470D01*
X862990Y1687520D01*
X862020D01*
X825500Y1651000D01*
X735020D01*
X698500Y1614480D01*
Y1534900D01*
G01X825500Y1778000D02*
Y1905000D01*
X870500Y1950000D01*
X1000000D01*
G01X440000Y1865100D02*
X658600D01*
X698500Y1905000D01*
G01Y2032000D02*
X474000D01*
X440000Y2066000D01*
Y2174900D01*
G01X820000Y2240000D02*
X705100D01*
X590130Y2354970D01*
Y2405770D01*
X490800Y2505100D01*
X440000D01*
G01X460000Y2814900D02*
Y2634000D01*
X440000Y2614000D01*
Y2505100D01*
G01X820000Y2240000D02*
Y2101000D01*
G01D02*
X864680Y2145680D01*
X891940D01*
X906550Y2160290D01*
X1840210D01*
X1868500Y2132000D01*
X1968500D01*
G01X1060000Y2640000D02*
Y2520500D01*
X979500Y2440000D01*
X820000D01*
G01X698500Y2540000D02*
Y2563500D01*
X738500Y2603500D01*
X823500D01*
X860000Y2640000D01*
G01X1040000Y2860000D02*
X664800D01*
X619700Y2814900D01*
X460000D01*
G01Y3145100D02*
Y3317500D01*
X571500Y3429000D01*
X756210D01*
X800000Y3385210D01*
Y3280000D01*
G01X1480000Y3305100D02*
X1320300D01*
X1311110Y3314290D01*
X1028290D01*
X1000000Y3286000D01*
Y3280000D01*
G01D02*
Y3100000D01*
X1040000Y3060000D01*
G01X1954900Y1220000D02*
X1846000D01*
X1832500Y1206500D01*
X1714500D01*
X1575900Y1345100D01*
X1380000D01*
G01X1980000Y840000D02*
X1827000D01*
X1652100Y1014900D01*
X1380000D01*
G01X1625100Y580000D02*
X1833000D01*
X2113000Y300000D01*
X2220000D01*
G01X1565000Y1835000D02*
X1662700D01*
X1669200Y1841500D01*
X1905000D01*
X1968500Y1905000D01*
Y1932000D01*
G01X1778000Y2286000D02*
Y2320000D01*
X1818000Y2360000D01*
X1890000D01*
G01X1143000Y2286000D02*
X1191900Y2334900D01*
X1480000D01*
G01X1143000Y2286000D02*
X1079500Y2349500D01*
Y2413000D01*
X1206500Y2540000D01*
X1317040D01*
X1328140Y2528900D01*
X1631860D01*
X1706460Y2603500D01*
X2540000D01*
X2640020Y2503480D01*
X2640990D01*
X2693980Y2450490D01*
Y2449520D01*
X2710000Y2433500D01*
Y2280000D01*
G01X1480000Y2665100D02*
X1165300D01*
X1140200Y2640000D01*
X1060000D01*
G01X1480000Y2974900D02*
X1260400D01*
X1206500Y2921000D01*
G01X2380000Y700000D02*
X2287500D01*
X2220000Y632500D01*
Y500000D01*
G01X2580000Y490000D02*
X2415000D01*
X2405000Y500000D01*
X2220000D01*
G01Y300000D02*
X2325210D01*
X2371210Y254000D01*
X2413000D01*
X2469000Y310000D01*
X2580000D01*
G01X2271100Y1763480D02*
Y1572600D01*
X2095500Y1397000D01*
X1968500D01*
X1928500Y1357000D01*
Y1246400D01*
X1954900Y1220000D01*
G01X2960000Y1060000D02*
X2854790D01*
X2835290Y1079500D01*
X2603500D01*
X2463000Y1220000D01*
X2285100D01*
G01X2960000Y860000D02*
X2280200D01*
X2260200Y840000D01*
X2180000D01*
G01X2349820Y2222500D02*
X2249480Y2122160D01*
Y2121510D01*
X2240000Y2112030D01*
Y2039370D01*
X2271100Y2008270D01*
Y1953980D01*
G01X2603500Y1397000D02*
X2517920Y1482580D01*
Y1520470D01*
X2274910Y1763480D01*
X2271100D01*
G01X2476500Y1714500D02*
Y1777990D01*
X2448900Y1805590D01*
Y1860000D01*
G01D02*
X2177500D01*
X1980000Y1662500D01*
Y1640000D01*
G01X2757500Y1968500D02*
X2667970D01*
X2640990Y1941520D01*
X2640020D01*
X2558500Y1860000D01*
X2448900D01*
G01X2476500Y1333500D02*
X2521180Y1288820D01*
X2532610D01*
X2636520Y1184910D01*
Y1181100D01*
G01X2413000Y2222500D02*
X2349820D01*
G01D02*
Y2287670D01*
X2249500Y2387990D01*
Y2413000D01*
G01X2159000Y2159000D02*
X2070000Y2248000D01*
Y2360000D01*
G01X2449500Y2413000D02*
X2603500D01*
G01X2070000Y2860000D02*
X2032000Y2898000D01*
Y3262000D01*
X2072000Y3302000D01*
X3288500D01*
X3328500Y3262000D01*
Y2667000D01*
G01X2580000Y490000D02*
X2732490D01*
X2902490Y320000D01*
X2910000D01*
G01X3238500Y380790D02*
X3177710Y320000D01*
X3090000D01*
G01X3140000Y1340000D02*
X3054500D01*
X2895600Y1181100D01*
X2827020D01*
G01X2884500Y571500D02*
X2788700D01*
X2660200Y700000D01*
X2580000D01*
G01X2960000Y860000D02*
X2985010D01*
G01D02*
X3072500Y772510D01*
X3152360D01*
X3162870Y762000D01*
X3175000D01*
X3238500Y698500D01*
G01X2985010Y860000D02*
X3254790D01*
X3314790Y920000D01*
X3420000D01*
G01X3084500Y571500D02*
X3365500D01*
X3420000Y626000D01*
Y720000D01*
G01X2984500Y2540000D02*
X2957520Y2513020D01*
Y2399850D01*
X3005010Y2352360D01*
Y2292490D01*
X3048020Y2249480D01*
X3153230D01*
X3265500Y2137210D01*
Y2032000D01*
G01D02*
X3237200D01*
X3160000Y1954800D01*
Y1800000D01*
G01X2957500Y1651000D02*
X2984500Y1678000D01*
Y1778000D01*
X3006500Y1800000D01*
X3160000D01*
G01X3465500Y2032000D02*
X3429000Y1995500D01*
Y1945000D01*
X3389000Y1905000D01*
X3342000D01*
X3302000Y1865000D01*
Y1483210D01*
X3340000Y1445210D01*
Y1340000D01*
G01X2857500Y1397000D02*
X2957000D01*
X3064360Y1504360D01*
Y1529370D01*
X3134990Y1600000D01*
X3160000D01*
G01X2608400Y1528900D02*
X2720300Y1417000D01*
X2730500D01*
Y1358900D01*
G01X2757500Y1651000D02*
Y1741500D01*
X2794000Y1778000D01*
G01X2603500Y2032000D02*
X2710000Y2138500D01*
Y2280000D01*
G01X3048000Y2159000D02*
X2957500Y2068500D01*
Y1968500D01*
G01X3148500Y2667000D02*
Y2833900D01*
X3154900Y2840300D01*
Y3000000D01*
G01X2984500Y2540000D02*
X3111180D01*
X3148500Y2577320D01*
Y2667000D01*
G01X2890000Y2280000D02*
Y2197710D01*
X2857500Y2165210D01*
G01X2710000Y2280000D02*
X2717510D01*
G01X3111320Y2413000D02*
X3202000D01*
G01X2690000Y2860000D02*
X2906000D01*
X3046000Y3000000D01*
X3154900D01*
G01X3590000Y1120000D02*
Y1449800D01*
X3580000Y1459800D01*
Y1540000D01*
G01X3410000Y1120000D02*
Y1010200D01*
X3420000Y1000200D01*
Y920000D01*
G01X3600000Y2540000D02*
X3619500Y2559500D01*
Y2627000D01*
X3659500Y2667000D01*
X3683000D01*
X3746500Y2603500D01*
Y2222500D01*
X3580000Y2056000D01*
Y1740000D01*
G01X3465500Y2032000D02*
Y2244290D01*
X3402000Y2307790D01*
Y2413000D01*
G01X3580000Y1540000D02*
X3445000D01*
X3429000Y1524000D01*
G01X3485100Y3000000D02*
Y2654900D01*
X3504360Y2635640D01*
Y2610630D01*
X3574990Y2540000D01*
X3600000D01*
G01X3402000Y2413000D02*
Y2518210D01*
X3343410Y2576800D01*
X3338500D01*
X3328500Y2586800D01*
Y2667000D01*
G01X3600000Y2340000D02*
Y2259800D01*
X3562700Y2222500D01*
G54D15*
X860000Y2640000D03*
X1000000Y3280000D03*
X800000D03*
X1060000Y2640000D03*
X1980000Y840000D03*
X2180000D03*
X2380000Y700000D03*
X2580000D03*
X2449500Y2413000D03*
X2249500D03*
X2884500Y571500D03*
X3084500D03*
X2757500Y1651000D03*
X2957500D03*
X3265500Y2032000D03*
X3140000Y1340000D03*
X3340000D03*
X2957500Y1968500D03*
X2757500D03*
X3202000Y2413000D03*
X3465500Y2032000D03*
X3402000Y2413000D03*
G54D16*
X820000Y2440000D03*
Y2240000D03*
X1040000Y3060000D03*
Y2860000D03*
X2220000Y300000D03*
Y500000D03*
X1968500Y1932000D03*
Y2132000D03*
X2960000Y1060000D03*
Y860000D03*
X3160000Y1600000D03*
Y1800000D03*
X3420000Y720000D03*
Y920000D03*
X3580000Y1740000D03*
Y1540000D03*
X3600000Y2540000D03*
Y2340000D03*
G54D17*
X1294900Y580000D03*
X1625100D03*
X1954900Y1220000D03*
X2285100D03*
X3154900Y3000000D03*
X3485100D03*
G54D18*
X1565000Y1835000D03*
G54D19*
X2580000Y490000D03*
Y310000D03*
M02*
